<svg xmlns="http://www.w3.org/2000/svg" viewBox="0 0 437.13 384.19"><defs><style>.cls-1{fill:#0d0e0e;}.cls-2{fill:#0e0f10;}.cls-3{fill:#0f0f10;}.cls-4{fill:#0f1010;}.cls-5{fill:#f6f6f6;}.cls-6{fill:#f5f4f5;}.cls-7{fill:#f4f4f4;}.cls-8{fill:#f5f5f5;}.cls-9{fill:#f2f1f2;}.cls-10{fill:#efefef;}.cls-11{fill:#f1f0f1;}.cls-12{fill:#ebeaeb;}.cls-13{fill:#ededed;}.cls-14{fill:#eeeded;}.cls-15{fill:#efeeef;}.cls-16{fill:#c4c3c3;}.cls-17{fill:#a7a6a6;}.cls-18{fill:#c5c4c4;}.cls-19{fill:#cdcdcc;}.cls-20{fill:#fbfbfb;}.cls-21{fill:#e8e7e7;}.cls-22{fill:#e7e6e6;}.cls-23{fill:#0a0b0b;}.cls-24{font-size:28px;fill:#3e3f3f;font-family:Calibri;}.cls-25{letter-spacing:-0.05em;}</style></defs><g id="Camada_2" data-name="Camada 2"><g id="Camada_1-2" data-name="Camada 1"><path class="cls-1" d="M290.29,78.91c-.13,3-1.88,4.75-4.4,6.08-4.91,2.6-5,4.34-.44,7.68,3.18,2.33,6.47,4.49,9.71,6.74,2.17,1.51,2.51,3.13.8,5.41-2.2,2.91-4,6.07-6,9.13-1.81,2.79-3.07,5-5.24-.12-2.79-6.49-9.86-6.62-13.71-.68s-1.15,11.68,5.82,12c4.46.22,4.4,1.85,2.43,4.83-2.11,3.18-4.24,6.35-6.42,9.49-1.57,2.27-3.33,2.85-5.79,1a103.81,103.81,0,0,0-9.07-6.07c-4.84-2.91-7.06-1.83-7.43,3.75-.27,4-2.3,6.49-6,6.5s-6.65-1.82-7.45-6c-.7-3.69,1.39-5.36,4.21-6.89,5-2.67,5.05-4.4.5-7.82-2.91-2.18-5.9-4.3-9-6.23-2.71-1.69-3.14-3.54-1.33-6.15,2.17-3.13,4.12-6.41,6.27-9.56,1.76-2.56,3.48-3.62,5.13.26s4.59,6.58,9.32,5.36c4-1,6.69-5.33,6.26-9.52-.51-4.9-3.62-6.86-8.12-6.89-4.13,0-4.12-1.77-2.27-4.59.9-1.39,1.71-2.84,2.67-4.19,6.77-9.47,4.72-9,15.16-2.77,1.13.67,2.07,1.67,3.19,2.36,4.76,2.9,7,1.81,7.4-3.59.34-4.21,3.09-6.79,7.08-6.64A6.88,6.88,0,0,1,290.29,78.91Z"/><path class="cls-2" d="M167.71,119.63c-10.8,0-10.51,1.1-10.41-10.66v-3c0-7.76-.87-8.37-7.76-5.19-3.18,1.47-6,.9-8-1.76-2.26-3-1.83-6.4.45-9.25,2.06-2.59,5-2.45,7.72-1.2,6.65,3,7.53,2.47,7.55-4.79,0-16.39-1.31-13.64,13.72-13.88q.75,0,1.5,0c5.06.1,5.31.43,2.85,4.84-1.73,3.09-1.76,6.08.24,8.89a8.15,8.15,0,0,0,7.93,3.23c6.24-.68,9.18-6.42,5.93-12.09-2.16-3.77-1.48-5,2.76-4.9,3.49.12,7,.19,10.48,0s4.69,1.53,4.57,4.8-.08,6.65,0,10c.11,6,2,7.12,7.27,4.44s9.21-.84,10,4.43c.39,2.82-.25,5.28-2.64,7s-4.74,1.23-7.08.12c-6.06-2.87-7.46-2-7.51,4.78,0,3.33,0,6.66,0,10,0,2.88-1.23,4.32-4.2,4.27-3.83-.06-7.66,0-11.48,0-3.28,0-4.41-1-2.23-4,2.59-3.67,2.25-7.4-1.12-10.23a8.48,8.48,0,0,0-10.64-.57c-3.62,2.33-4.48,5.59-2.57,9.46,2.66,5.39,2.69,5.37-3.32,5.39Z"/><path class="cls-3" d="M207.21,56.73c0,11.44,1.14,10.7-10.83,10.67-1.5,0-3-.07-4.5,0-6,.4-7.19,2.28-5.06,7.76,1,2.46,1.45,4.94-.94,6.81a5.46,5.46,0,0,1-6.55.2c-2.86-1.76-1.74-4.36-1-6.67,1.82-5.8.54-7.79-5.65-8.09a95.11,95.11,0,0,0-10,0c-4.21.27-5.7-1.65-5.46-5.65.18-3,0-6,0-9,.07-5.34.35-5.49,5.19-3.07,4.56,2.28,9,1,10.89-3.27,2.25-5,.68-9.77-3.86-11.77-2.87-1.27-5.4-.61-7.92,1.17s-4.32,1.19-4.29-2.3c0-.17,0-.34,0-.5.33-17.7-2.84-15.34,14.59-15.55,6.56-.08,7.4-1.51,4.44-7.29-1.6-3.15-1.67-6.07,1.27-8.47s6.33-2.19,9.19,0,3.05,5.19,1.35,8.46c-3.08,5.9-2.29,7.18,4.3,7.33,3.33.08,6.67,0,10,0s4.91,1.48,4.83,4.86c-.09,3.66,0,7.33,0,11,0,3-.61,4.77-4,2.36s-7-2.6-10,.47-3,7-1.37,10.7c1.51,3.52,5.62,4.81,9.26,3.27,6-2.55,6-2.55,6,4.06Z"/><path class="cls-4" d="M219.62,67.26c-10.74,0-10.37,1-10.26-10.25,0-1.33,0-2.67,0-4,0-7-1-7.65-7.64-6.07-2.28.54-5,1.44-6.69-1.48a5.34,5.34,0,0,1,.23-6.09c1.81-2.66,4.33-1.92,6.72-1.14,5.61,1.82,7.2.8,7.36-5,.1-3.5.09-7,0-10.49s1.26-5.33,5-5.2c3.49.12,7,.1,10.49,0,4-.11,4.79,1,2.46,4.53-2.44,3.68-1.94,7.33,1.69,10.1s9.11,2.17,11.83-1c2.52-2.92,2.43-6.17.46-9.21-2.15-3.32-1.14-4.46,2.44-4.44,3.83,0,7.66,0,11.49,0,2.8,0,4.25,1.35,4.15,4.34-.13,3.66-.11,7.33,0,11,.15,5.35,2.23,6.6,6.83,4,2.68-1.5,5.25-2.09,7.83-.09,2.36,1.82,2.76,4.39,2.28,7.16-.81,4.72-4.8,6.55-9.36,4.31-6-2.94-7.52-2-7.61,4.88a9.38,9.38,0,0,1,0,1.5c-.64,4,2.21,9.62-1.62,11.69-4.69,2.52-10.83,1.29-16.19.56-3.41-.46-.82-3-.06-4.47,1.69-3.41,2.11-6.63-.87-9.6s-6.33-3.38-10-1.72a7.63,7.63,0,0,0-3.9,10.43c2.54,5.67,2.54,5.67-3.51,5.69Z"/><path class="cls-5" d="M271.2,109.66c-9.62,6.52-21.56,5-32.16,8.08-2.22.65-3.31-1.35-5.65-3L270.73,108C270.89,108.54,271.05,109.1,271.2,109.66Z"/><path class="cls-6" d="M293.85,101.92l-36.72,6.66C261.2,102.19,288.27,97.44,293.85,101.92Z"/><path class="cls-5" d="M287.15,97.24l-24.45,4.63c-1,.19-1.66-.15-1.53-1.23.1-.91-.41-2.22.86-2.57a118.05,118.05,0,0,1,21.26-3.58C284.27,94.41,285.38,95.93,287.15,97.24Z"/><path class="cls-7" d="M240.72,119.27c7.78-1.42,15.37-2.87,23-4.13,1-.17,2.89-1.37,3.15.8a2.65,2.65,0,0,1-2.46,3.11c-5.88.94-11.73,2-17.59,3C244.22,122.55,242.38,121.49,240.72,119.27Z"/><path class="cls-6" d="M273.2,128.93c-6.3.82-12.41,3.79-19,1.3-1.63-.62-3.26.48-4.4,1.78a5.57,5.57,0,0,1-5.8,1.84c2.22-3.45,5.42-4.8,9.38-5.27,4.43-.52,8.78-1.71,13.19-2.45,1.92-.32,4-.75,5.65.94C272.74,127.59,273.77,127.84,273.2,128.93Z"/><path class="cls-8" d="M280.42,92.67c-5.25,1.66-10.88,1.15-16.07,3.21-1.29.5-3.84,1.09-4.23-1.81s2.13-1.85,3.38-2.14c4.16-1,8.44-1.47,12.56-2.55C279.28,88.54,280.29,89.85,280.42,92.67Z"/><path class="cls-9" d="M250.18,127.31c-2.45.69-3.1-.9-3.27-2.31-.2-1.61,1.49-1.21,2.4-1.39,4.86-1,9.75-1.71,14.61-2.7,1.8-.37,3.32-.5,3.87,1.63.7,2.68-2,2-2.85,2.16C260,125.8,254.88,126.52,250.18,127.31Z"/><path class="cls-7" d="M274.21,87.89c-4.86.93-9.77,1.64-14.56,2.87-3.18.82-4.89-2.77-8-2.54l16.43-3.15c1.27-.24,2.2.49,3.15,1.15C272,87.27,274.26,85.5,274.21,87.89Z"/><path class="cls-10" d="M266.15,83.69l-13.83,2.44C254.45,80.12,260.58,78.93,266.15,83.69Z"/><path class="cls-11" d="M275.15,130.79c-3.45,6-8.51,6.77-13.79,2.46A71,71,0,0,1,275.15,130.79Z"/><path class="cls-12" d="M234.42,112.45c3.09-5.89,6.67-6.64,12-2.29A46.45,46.45,0,0,1,234.42,112.45Z"/><path class="cls-13" d="M280.42,106.27l12.3-2.28C290.1,110.05,287.56,110.54,280.42,106.27Z"/><path class="cls-7" d="M281.36,81c-1.19.08-2.3.22-2.2-1.62.22-4,3.75-2.06,5.6-3.1,1.27-.71,2.55-.12,2.77,1.64S285.46,80.86,281.36,81Z"/><path class="cls-14" d="M243,140.23c-2.08.45-3.88-.45-3.34-2,1-2.78,4.09-1.85,6.34-2.43,1.42-.37,2.35-.11,2.15,1.57C247.77,140.91,244.7,139.59,243,140.23Z"/><path class="cls-15" d="M274.21,87.89l-2.95-1.67c4.15,1.54,6.13-3.53,9.88-3.23,1-.55,1.1,0,.94.83C280.13,86.47,277.71,88.22,274.21,87.89Z"/><path class="cls-16" d="M241.14,104.77c.15.76-.16,1.28-.93,1.26a6.33,6.33,0,0,1-1.59-.45c.4-.64.68-1.49,1.26-1.85C240.28,103.49,241,104,241.14,104.77Z"/><path class="cls-17" d="M282.08,83.82l-.94-.83c1-1,2.13-1,3.69-.46Z"/><path class="cls-18" d="M260.69,78.74c-2.23.39-3.65,1-3.89.63-.92-1.22.15-1.54,1.17-1.53A14.07,14.07,0,0,1,260.69,78.74Z"/><path class="cls-19" d="M273.2,128.93l-1-1.86c1.25.19,2.55.3,3.3,1.55Z"/><path class="cls-20" d="M192.44,116.67c1.9-7.42,1-11.43-3.33-14.27-3.44-2.29-10.38-2.17-13.74.46-4.86,3.78-5,8.64-2.48,13.86-12.58,1-12.58,1-12.67-10.9,0-.66,0-1.33,0-2-.38-7.27-4.27-9.59-10.55-6.16-2,1.1-4,2.21-5.72-.07a4.42,4.42,0,0,1-.2-5.55c1.65-2.29,3.75-1.52,5.78-.56,6.79,3.19,10.31,1.1,10.7-6.39,0-.33,0-.66,0-1,.24-12.17.24-12.17,12.49-11.52-2.1,7.78-1.28,12.24,3.26,15.08a11.7,11.7,0,0,0,12.73.25c4.59-2.71,5.53-7,3.76-15,.12-.09.23-.26.35-.27,11.65-1.28,11.65-1.28,11.68,10.29a27.92,27.92,0,0,0,.1,4c.87,5.84,4.72,7.82,10,5.13,2.78-1.41,5.53-3.13,7.23,1.22a4.13,4.13,0,0,1-1,4.59c-1.38,1.4-2.86,1.2-4.56.42-8.49-3.87-11.71-1.73-11.76,7.73C204.42,117.87,204.42,117.87,192.44,116.67Z"/><path class="cls-20" d="M160,52.1c7.53,2.27,11.8,1.4,14.8-2.74A11.73,11.73,0,0,0,174.48,35c-3-3.79-7.28-4.47-14.07-2.17a5.36,5.36,0,0,1-.36-1.33c-.29-11.1-.28-11.1,11-11.23,1,0,2,0,3-.1,6.08-.46,8.33-4.44,5.55-9.94C178.5,8.13,177,6.06,179.27,4a4.16,4.16,0,0,1,5.53-.15c2.54,1.85,1.31,3.93.16,6.12-3.16,6-.8,10,6,10.3,3.49.14,7,.14,10.49,0,2.11-.08,3.05.53,3,2.78-.14,3.14,0,6.3,0,9.53-7.41-2-11.54-1-14.39,3.39-2.62,4.05-2.43,10.36.7,14,3.65,4.27,8.21,4.32,13.69,1.88,0,3.78-.05,7.18,0,10.57,0,2-1,2.52-2.81,2.49-3.66,0-7.33,0-11,0s-6.37,1.54-7.92,5.63c-3.58-7-9.92-5.58-15.77-5.67-7.9-.13-6.73,1.17-6.86-6.87C160,56.21,160,54.39,160,52.1Z"/><path class="cls-21" d="M182.76,73c.58,2.46,3.54,4.22,1.27,6.83-.77.88-2.65.87-3.16,0C179.34,77.25,181.33,75.3,182.76,73Z"/><path class="cls-20" d="M206.29,42.42c4.32-1.64,5.92-5,5.92-9.39V31.54c.06-12,.06-12,12.38-11.13-2.15,5.21-2.29,10.13,2.66,13.87,3.76,2.84,10.21,2.78,14.1.1s4.75-6.33,3-13.91c12.26-1.18,12.26-1.18,12.37,11,0,.83-.05,1.67,0,2.5.65,6.78,4.49,8.84,10.54,5.51,2.09-1.16,4.05-1.9,5.77.19a4.53,4.53,0,0,1-.2,6c-1.58,1.93-3.5,1-5.39,0-6.65-3.53-10.39-1.36-10.74,6.16,0,.67,0,1.34,0,2-.06,11.75-.06,11.75-12.67,10.64,2.26-5.93,2.44-11.49-3.68-15.26a12.09,12.09,0,0,0-13.55,1.1c-4.48,4-4.44,8.84-1.73,14.46-3.8,0-7.08,0-10.36,0-2,0-2.53-1-2.49-2.8.08-3.49.09-7,0-10.49-.1-4.13-1.59-7.4-5.9-8.72Z"/><path class="cls-22" d="M206.29,42.42v.33c-2.3-.26-4,1.32-6,1.93-1.13.35-2.34.5-3-.85a3,3,0,0,1,0-2.85c.74-1.3,2-1,3-.59C202.27,41.19,204,42.61,206.29,42.42Z"/><path class="cls-23" d="M192.05,260.72c0,16.57.3,28.59,1.88,40.45,1,7.61,3.08,15.19,8.18,21.5,3.62,4.48,8.59,6.76,13.71,8.38,6.71,2.13,13.89,2.25,20.77,1.5,6.26-.68,11.68-4.07,14.28-10.36,4.23-10.23,5-20.9,3.78-31.83-.29-2.48-1.24-3.46-3.73-3.46-4.49,0-9-.32-13.46-.29-1.94,0-3.88.32-4.19-2.21s1.94-3,3.61-3.26c9.54-1.65,19.19-1.57,28.84-1.48,9.45.08,18.9,1,28.35-.31a29.38,29.38,0,0,1,5.47-.14c2.41.13,3.59,1.61,3.52,4s-1.38,3.56-3.86,3.41c-1.83-.11-3.76.31-5.47-.14-4.21-1.1-5.16,1.2-5.65,4.58s-1.28,6.85-1.92,10.28c-2.34,12.7-10.3,20.77-21.11,27.11-16.2,9.49-33.4,11-51.35,7.9-17.4-3-30.49-12.49-40.38-27a87.21,87.21,0,0,1-14.58-36.5c-1.52-10.09-.42-20.22,1.72-30.21,4.75-22.17,17.06-39.66,35.44-52.09,16.79-11.34,35.58-13.67,54.78-5.36,3.11,1.35,5.58,4.07,9.1,4.83,2.93.63,5.52.68,7.4-2.31,2-3.23,5.5-3.24,8.5-2.45s2.21,4,2.28,6.41q.42,13.92.67,27.83a27.76,27.76,0,0,1-.39,4.45c-.26,1.94-.18,4.18-2.8,4.64s-3.64-1.38-4.86-3.34c-5.62-9.09-9.91-19.07-18.08-26.47-4.86-4.4-10.09-8.06-16.27-10.21-2.3-.8-4.71-1.62-7.18,0a3.7,3.7,0,0,1-2.86.33c-9.34-3.2-16.46,1.57-21.88,7.74a35.45,35.45,0,0,0-7.78,15.31C192.25,229.58,193.61,247.53,192.05,260.72Z"/><path class="cls-23" d="M22.33,300.9c-.44-4,.31-8-1-11.95q-.21-6.48-.41-12.95c-.8-3.12.31-6.37-.7-9.47a149.86,149.86,0,0,0,0-22,85.67,85.67,0,0,0,0-18q.15-15.3.32-30.62c0-3-1.51-4.12-4.32-3.93a4,4,0,0,1-1.52-2.36c-.19.79.4,1.9-.84,2.31l-6.75.11a19.54,19.54,0,0,1-5-.06c-3,.24-2-2.1-1.91-3.39.2-2.25,2.06-3.25,4.07-3.49,2.27-.27,4.57-.17,6.86-.23a46,46,0,0,1,12,0c5.35.19,10.7.64,16.05,0a49.4,49.4,0,0,1,10.94-.06,18.63,18.63,0,0,0,7.06,0,46.52,46.52,0,0,1,9.94,0c2.46.94,4,2.52,3.19,5.33s-3.18,1.86-5,1.91a67.72,67.72,0,0,1-7-.22c-7.22-.57-8.31.49-8.15,7.94.21,9.79.53,19.59.53,29.38,0,16.57-.3,33.13-.33,49.69,0,8.64-.14,17.31.45,25.92,1.16,17.11,11.07,27.84,29,27.71a125.68,125.68,0,0,0,13.46-.38c10.86-1.28,23.18-10.71,25.8-23.67,3.6-17.89,2-35.73,1.95-53.63q-.09-28.44.34-56.88c.07-4.5-1.07-6.57-5.86-6-3,.36-6,.16-9,.24-2.46.07-5.25.82-5.46-3.11-.2-3.63,2.2-4,4.91-4,8-.05,16,0,23.95-.18,4.31-.08,8.62-.49,12.94-.66,2-.08,4-.27,5.34,1.78a11.79,11.79,0,0,1,0,5.22c-3.12,2.66-6.72-1.35-9.89.69-2.12-.22-4.24-1.29-6.34.06-3.1.18-3.73,2.1-3.58,4.81,1.74,30.91.37,61.84.61,92.76.07,9.19-1.91,18.2-4.37,26.9-.9,3.21-3,7.86-8,8.7-1.88.32-.48,2.3-2,3.57-8.22,7.09-17.9,10.27-28.28,11.06a112.91,112.91,0,0,1-33.24-2c-8-2.92-15.75-6.31-21.68-12.75-4.92-5.33-8.4-11.36-8.52-18.88C22.27,304.45,23.63,302.5,22.33,300.9Z"/><path class="cls-23" d="M382.07,187.21c-18.15-.89-28.14,10-31.77,27.92-3.75,18.5-4,37.32-3.13,56,.53,12,0,24.23,3.79,35.94,4.58,14.1,14.86,23.93,31.65,24.34,15.64.37,26.32-7,34.34-18.39,4.35-6.2,7.14-13.91,10.32-21.07,1.37-3.08,3.64-4.11,6.59-3.58,2.73.49,3.48,2.57,3.23,5.25C436,305.74,436,317.87,435.91,330c0,2.12-.18,4.39-2.85,5.17-3.24.71-5.74.75-8.68-2.15-4.39-4.34-10.35-2.19-15.33,2.21-1.78.59-3.71-.12-5.46.67-5.84-1-11.26,1.69-17,2-7.74.46-14.85-2.45-22.37-2.14-1.66.07-2.44-1.43-3.63-2.09-9.95-5.47-20.63-10.08-27.95-19.26-14.49-18.17-22.2-38.83-19.25-62.13a89,89,0,0,1,12.82-35.94c8.92-14.4,20.91-25.34,36.14-32a52.87,52.87,0,0,1,40.19-1.3c4.36,1.56,8.81,2.8,13.07,4.77,2.59,1.19,5.69.07,7.71-1.72,1.83-1.63,3.64-1.91,5.79-2.06,3.32-.23,5,1,4.91,4.55-.08,3.15.17,6.31.28,9.47.69,2.1-.16,4.36.67,6.45-.27,5.52-1.31,11.05.31,16.54.37,2.67.74,5.33-.25,8-6.52,2.13-8.32,1.31-10.79-4.74-2-4.78-4-9.53-6-14.29-4.17-2.79-6.34-7.44-10-10.74a115,115,0,0,1-9-8.35C394.11,186.57,388.13,186.72,382.07,187.21Z"/><text class="cls-24" transform="translate(67.11 375.44) scale(1.11 1)">UNIFIED GAME CAN<tspan class="cls-25" x="227.25" y="0">V</tspan><tspan x="241.83" y="0">AS</tspan></text></g></g></svg>