<svg xmlns="http://www.w3.org/2000/svg" viewBox="0 0 625.82 177.78"><defs><style>.cls-1{fill:#fff;}.cls-2{fill:#2c2868;}</style></defs><g id="Camada_2" data-name="Camada 2"><g id="Camada_1-2" data-name="Camada 1"><path class="cls-1" d="M184.6,97c-.16,3.67-2.31,5.83-5.41,7.46-6,3.19-6.16,5.34-.54,9.45,3.91,2.85,7.95,5.51,11.93,8.27,2.68,1.86,3.09,3.85,1,6.65-2.69,3.58-5,7.46-7.42,11.22-2.22,3.43-3.77,6.08-6.44-.14-3.42-8-12.12-8.14-16.85-.84s-1.41,14.35,7.15,14.77c5.49.27,5.41,2.28,3,5.94q-3.88,5.86-7.88,11.66c-1.93,2.79-4.1,3.5-7.13,1.21a122.83,122.83,0,0,0-11.14-7.46c-6-3.58-8.68-2.26-9.13,4.61-.33,4.93-2.82,8-7.43,8s-8.17-2.24-9.15-7.4c-.87-4.54,1.7-6.59,5.18-8.47,6.08-3.29,6.2-5.41.61-9.61-3.58-2.69-7.25-5.29-11-7.65-3.33-2.08-3.85-4.35-1.63-7.57,2.66-3.85,5.06-7.88,7.71-11.74,2.16-3.16,4.27-4.46,6.3.31,2.11,4.94,5.64,8.09,11.45,6.59,4.93-1.27,8.22-6.55,7.69-11.7-.62-6-4.45-8.43-10-8.47-5.07,0-5-2.17-2.79-5.64,1.12-1.7,2.11-3.49,3.29-5.14,8.32-11.65,5.8-11.12,18.63-3.42,1.39.84,2.54,2.06,3.92,2.9,5.84,3.57,8.56,2.23,9.09-4.41.42-5.17,3.81-8.34,8.71-8.16A8.48,8.48,0,0,1,184.6,97Z"/><path class="cls-1" d="M33.94,147c-13.27,0-12.91,1.35-12.79-13.1,0-1.23,0-2.46,0-3.68,0-9.54-1.07-10.28-9.53-6.38-3.91,1.81-7.34,1.1-9.78-2.17-2.78-3.72-2.25-7.86.54-11.37,2.54-3.18,6.1-3,9.5-1.47,8.17,3.67,9.25,3,9.27-5.88C21.19,82.82,19.54,86.2,38,85.9c.61,0,1.23,0,1.84,0,6.22.14,6.53.54,3.5,6-2.13,3.79-2.16,7.46.3,10.92,2.32,3.26,5.89,4.39,9.74,4,7.67-.84,11.29-7.89,7.29-14.86-2.66-4.63-1.82-6.19,3.39-6,4.29.15,8.6.24,12.89,0,4.45-.28,5.76,1.87,5.61,5.89s-.09,8.18,0,12.27c.13,7.34,2.48,8.75,8.93,5.45s11.32-1,12.23,5.45c.5,3.47-.3,6.49-3.23,8.58s-5.82,1.51-8.71.14c-7.45-3.52-9.16-2.46-9.23,5.88,0,4.09,0,8.19,0,12.28,0,3.54-1.52,5.31-5.16,5.25-4.71-.07-9.42,0-14.12,0-4,0-5.42-1.2-2.74-5,3.18-4.5,2.77-9.08-1.38-12.57-3.92-3.29-8.62-3.55-13.07-.69s-5.5,6.87-3.15,11.62C46.2,147,46.24,147,38.85,147Z"/><path class="cls-1" d="M82.5,69.72c0,14.07,1.39,13.15-13.31,13.12-1.85,0-3.7-.1-5.53,0-7.34.49-8.84,2.8-6.22,9.53,1.18,3,1.78,6.07-1.16,8.37a6.69,6.69,0,0,1-8.05.25c-3.51-2.16-2.14-5.36-1.25-8.2,2.25-7.12.67-9.57-6.94-9.93a109.36,109.36,0,0,0-12.28,0c-5.17.33-7-2-6.7-7,.22-3.67,0-7.37.05-11,.08-6.56.42-6.75,6.37-3.77,5.6,2.8,11,1.17,13.38-4,2.77-6.08.84-12-4.73-14.47-3.54-1.56-6.64-.75-9.74,1.44-3.27,2.31-5.32,1.46-5.28-2.83,0-.21,0-.41,0-.61C21.52,18.88,17.61,21.78,39,21.52c8.07-.1,9.1-1.85,5.47-9-2-3.87-2.06-7.46,1.56-10.41s7.77-2.69,11.29,0S61.1,8.5,59,12.52c-3.78,7.25-2.8,8.82,5.29,9,4.1.09,8.2,0,12.29,0s6,1.8,5.94,6c-.11,4.5,0,9,0,13.51,0,3.68-.75,5.87-4.87,2.9s-8.54-3.19-12.23.58-3.65,8.57-1.69,13.15c1.85,4.32,6.91,5.91,11.39,4,7.4-3.13,7.4-3.13,7.41,5Z"/><path class="cls-1" d="M97.74,82.66c-13.19,0-12.74,1.23-12.6-12.6,0-1.63,0-3.27,0-4.91,0-8.56-1.28-9.4-9.4-7.46-2.8.67-6.13,1.77-8.22-1.82a6.56,6.56,0,0,1,.29-7.48C70,45.11,73.13,46,76.06,47c6.9,2.24,8.85,1,9.06-6.19.12-4.3.11-8.6,0-12.89s1.56-6.56,6.12-6.39c4.3.15,8.6.13,12.9,0,4.86-.14,5.89,1.25,3,5.56-3,4.52-2.38,9,2.08,12.42s11.2,2.67,14.53-1.18c3.1-3.59,3-7.58.57-11.32-2.65-4.08-1.41-5.49,3-5.46,4.71,0,9.41,0,14.12,0,3.44.05,5.23,1.66,5.1,5.34-.16,4.5-.13,9,0,13.51.19,6.58,2.75,8.12,8.39,5,3.29-1.85,6.45-2.58,9.63-.12,2.9,2.24,3.39,5.4,2.8,8.81-1,5.8-5.9,8-11.51,5.29-7.37-3.61-9.24-2.41-9.34,6a14.1,14.1,0,0,1,0,1.84c-.79,4.9,2.71,11.82-2,14.36-5.76,3.1-13.3,1.59-19.9.7-4.19-.57-1-3.64-.07-5.5,2.08-4.18,2.59-8.15-1.07-11.8s-7.78-4.15-12.34-2.11a9.38,9.38,0,0,0-4.79,12.82c3.12,7,3.12,7-4.31,7Z"/><path class="cls-2" d="M161.14,134.77c-11.82,8-26.49,6.11-39.53,9.93-2.73.8-4.06-1.66-6.94-3.66l45.89-8.34C160.75,133.39,161,134.08,161.14,134.77Z"/><path class="cls-2" d="M189,125.26l-45.13,8.19C148.85,125.59,182.11,119.76,189,125.26Z"/><path class="cls-2" d="M180.74,119.51l-30.05,5.68c-1.25.24-2-.17-1.88-1.51.13-1.11-.5-2.73,1.06-3.15a143.82,143.82,0,0,1,26.13-4.4C177.2,116,178.57,117.9,180.74,119.51Z"/><path class="cls-2" d="M123.68,146.59c9.56-1.76,18.89-3.53,28.25-5.09,1.21-.2,3.55-1.68,3.87,1a3.27,3.27,0,0,1-3,3.83c-7.22,1.15-14.42,2.43-21.61,3.72C128,150.61,125.72,149.31,123.68,146.59Z"/><path class="cls-2" d="M163.59,158.45c-7.73,1-15.24,4.66-23.33,1.6-2-.76-4,.59-5.41,2.19a6.83,6.83,0,0,1-7.12,2.26c2.71-4.24,6.65-5.9,11.52-6.47,5.45-.64,10.79-2.11,16.21-3,2.36-.39,4.92-.92,6.94,1.16C163,156.81,164.29,157.12,163.59,158.45Z"/><path class="cls-2" d="M172.47,113.89c-6.45,2-13.37,1.41-19.76,3.94-1.57.63-4.72,1.35-5.19-2.22-.5-3.74,2.62-2.27,4.15-2.63,5.12-1.19,10.37-1.8,15.44-3.13C171.07,108.82,172.3,110.42,172.47,113.89Z"/><path class="cls-2" d="M135.3,156.46c-3,.85-3.8-1.11-4-2.84-.24-2,1.84-1.48,2.95-1.7,6-1.17,12-2.11,18-3.32,2.21-.45,4.08-.61,4.76,2,.86,3.29-2.41,2.41-3.5,2.65C147.32,154.61,141.08,155.49,135.3,156.46Z"/><path class="cls-2" d="M164.84,108c-6,1.14-12,2-17.89,3.53-3.92,1-6-3.41-9.8-3.12l20.19-3.88c1.56-.3,2.7.6,3.87,1.42C162.08,107.26,164.9,105.08,164.84,108Z"/><path class="cls-2" d="M154.93,102.86l-17,3C140.56,98.47,148.08,97,154.93,102.86Z"/><path class="cls-2" d="M166,160.74c-4.25,7.39-10.47,8.32-17,3C154.41,162.07,159.82,161.42,166,160.74Z"/><path class="cls-2" d="M115.93,138.2c3.81-7.24,8.21-8.16,14.73-2.82C125.75,137.22,120.93,137.69,115.93,138.2Z"/><path class="cls-2" d="M172.47,130.6l15.11-2.8C184.37,135.25,181.24,135.86,172.47,130.6Z"/><path class="cls-2" d="M173.62,99.55c-1.46.1-2.82.27-2.7-2,.27-4.94,4.61-2.53,6.88-3.81,1.57-.88,3.13-.16,3.4,2S178.66,99.38,173.62,99.55Z"/><path class="cls-2" d="M126.52,172.34c-2.57.56-4.77-.55-4.11-2.45,1.19-3.41,5-2.27,7.79-3,1.75-.45,2.89-.13,2.65,1.93C132.34,173.18,128.57,171.56,126.52,172.34Z"/><path class="cls-2" d="M164.84,108l-3.63-2c5.1,1.89,7.54-4.35,12.14-4,1.28-.67,1.36,0,1.16,1C172.11,106.27,169.14,108.42,164.84,108Z"/><path class="cls-2" d="M64.35,143.39c2.32-9.12,1.17-14-4.1-17.55-4.23-2.8-12.75-2.65-16.89.57-6,4.65-6.08,10.62-3,17-15.47,1.18-15.47,1.18-15.58-13.39,0-.82,0-1.64,0-2.46-.46-8.92-5.25-11.78-13-7.57-2.5,1.36-4.87,2.72-7-.08a5.43,5.43,0,0,1-.25-6.82c2-2.82,4.61-1.86,7.11-.69,8.34,3.93,12.67,1.35,13.14-7.85,0-.41,0-.82,0-1.23.29-15,.29-15,15.34-14.16-2.58,9.56-1.57,15,4,18.53a14.37,14.37,0,0,0,15.64.31c5.65-3.32,6.81-8.59,4.63-18.44.14-.12.27-.33.43-.34,14.32-1.58,14.31-1.58,14.35,12.64a34.9,34.9,0,0,0,.13,4.91c1.06,7.17,5.8,9.61,12.32,6.31,3.42-1.73,6.8-3.85,8.88,1.49a5.08,5.08,0,0,1-1.27,5.65c-1.7,1.72-3.52,1.47-5.6.52-10.44-4.76-14.39-2.13-14.46,9.5C79.06,144.86,79.06,144.86,64.35,143.39Z"/><path class="cls-2" d="M24.5,64c9.25,2.79,14.5,1.72,18.19-3.36A14.42,14.42,0,0,0,42.27,43c-3.67-4.66-9-5.5-17.3-2.67a7.15,7.15,0,0,1-.43-1.63C24.18,25.07,24.19,25.07,38,24.91c1.23,0,2.46,0,3.69-.12,7.47-.56,10.24-5.46,6.82-12.22-1.3-2.57-3.15-5.12-.35-7.7A5.09,5.09,0,0,1,55,4.68c3.13,2.27,1.61,4.83.19,7.53-3.88,7.37-1,12.32,7.37,12.66,4.29.17,8.6.16,12.9,0,2.58-.1,3.74.66,3.63,3.42C78.87,32.15,79,36,79,40c-9.1-2.5-14.18-1.26-17.68,4.17-3.22,5-3,12.74.86,17.24,4.48,5.25,10.09,5.32,16.82,2.31,0,4.65-.07,8.82,0,13,0,2.5-1.27,3.09-3.45,3.06-4.51-.06-9,0-13.52,0s-7.82,1.89-9.73,6.92c-4.4-8.61-12.19-6.86-19.39-7-9.7-.15-8.26,1.44-8.42-8.45C24.47,69.08,24.5,66.84,24.5,64Z"/><path class="cls-2" d="M81.36,52.14c5.31-2,7.28-6.16,7.28-11.54V38.76C88.72,24,88.72,24,103.85,25.09c-2.63,6.4-2.81,12.45,3.27,17,4.62,3.49,12.55,3.42,17.33.12s5.84-7.78,3.63-17.09c15.06-1.45,15.06-1.45,15.2,13.45,0,1-.06,2.06,0,3.07.79,8.34,5.52,10.88,13,6.78,2.57-1.42,5-2.33,7.09.23,1.92,2.35,1.54,5.16-.25,7.35-1.94,2.37-4.3,1.28-6.61.05-8.18-4.34-12.77-1.67-13.21,7.58,0,.81,0,1.63,0,2.45-.08,14.44-.08,14.44-15.57,13.08,2.78-7.29,3-14.12-4.53-18.76-4.9-3-12.33-2.46-16.65,1.35-5.51,4.88-5.45,10.86-2.12,17.78-4.67,0-8.71-.06-12.74,0-2.48,0-3.11-1.21-3.06-3.44q.15-6.45,0-12.89c-.13-5.08-2-9.1-7.26-10.72Z"/><path class="cls-1" d="M380.74,88c0,16.57.3,28.58,1.88,40.44,1,7.62,3.07,15.19,8.18,21.51,3.62,4.48,8.58,6.76,13.71,8.38,6.7,2.12,13.89,2.24,20.76,1.5,6.27-.68,11.69-4.07,14.29-10.37,4.22-10.23,5.05-20.89,3.78-31.82-.29-2.49-1.25-3.47-3.73-3.47-4.49,0-9-.31-13.46-.29-1.94,0-3.88.32-4.2-2.21s1.94-3,3.61-3.25c9.55-1.65,19.19-1.57,28.84-1.48,9.45.08,18.91,1,28.35-.31a29.49,29.49,0,0,1,5.48-.14c2.4.13,3.59,1.6,3.52,4s-1.38,3.57-3.87,3.42c-1.82-.11-3.75.3-5.47-.14-4.2-1.11-5.15,1.2-5.64,4.58s-1.29,6.85-1.92,10.28c-2.35,12.7-10.3,20.76-21.12,27.1-16.19,9.5-33.39,11-51.34,7.91-17.4-3-30.49-12.49-40.38-27a87.32,87.32,0,0,1-14.58-36.5c-1.52-10.1-.43-20.23,1.71-30.22,4.76-22.17,17.06-39.65,35.45-52.08,16.79-11.35,35.58-13.68,54.77-5.37,3.12,1.35,5.59,4.08,9.1,4.83,2.94.64,5.53.69,7.41-2.3,2-3.23,5.5-3.24,8.5-2.46s2.2,4,2.28,6.42q.41,13.91.67,27.83a29.07,29.07,0,0,1-.39,4.45c-.26,1.93-.19,4.18-2.8,4.64s-3.64-1.38-4.86-3.34c-5.63-9.09-9.91-19.07-18.08-26.47-4.86-4.4-10.09-8.06-16.27-10.21-2.31-.8-4.71-1.63-7.18,0a3.75,3.75,0,0,1-2.86.33c-9.35-3.2-16.47,1.56-21.88,7.74a35.45,35.45,0,0,0-7.78,15.31C380.93,56.84,382.29,74.78,380.74,88Z"/><path class="cls-1" d="M211,128.16c-.44-4,.31-8-1-12l-.42-13c-.79-3.11.32-6.37-.69-9.46a150,150,0,0,0,0-22,84.9,84.9,0,0,0,0-18q.17-15.31.32-30.62c0-3-1.51-4.13-4.32-3.93a4,4,0,0,1-1.51-2.36c-.19.79.39,1.89-.85,2.3l-6.74.11a19.54,19.54,0,0,1-5-.05c-3,.24-2-2.1-1.92-3.39.2-2.26,2.06-3.26,4.08-3.5,2.26-.27,4.57-.17,6.85-.23a46.48,46.48,0,0,1,12,0c5.35.2,10.7.65,16,0a50.11,50.11,0,0,1,11-.05,18.63,18.63,0,0,0,7.06,0,46.52,46.52,0,0,1,9.94,0c2.46.94,4,2.52,3.18,5.32s-3.17,1.86-5,1.91a65.1,65.1,0,0,1-7-.21c-7.21-.57-8.3.48-8.15,7.93.21,9.8.54,19.59.53,29.39,0,16.56-.29,33.12-.33,49.69,0,8.64-.13,17.3.46,25.92,1.16,17.11,11.07,27.84,29,27.7a123.38,123.38,0,0,0,13.47-.38c10.86-1.27,23.18-10.7,25.79-23.66,3.6-17.89,2-35.73,1.95-53.63q-.07-28.44.35-56.88c.07-4.5-1.07-6.58-5.86-6-3,.35-6,.16-9,.24-2.46.06-5.26.82-5.47-3.11-.19-3.64,2.21-4,4.92-4,8,0,16,0,23.94-.17,4.32-.08,8.63-.49,12.95-.66,2-.08,4.05-.27,5.34,1.78a11.89,11.89,0,0,1,0,5.21c-3.13,2.67-6.72-1.35-9.9.7-2.11-.23-4.23-1.29-6.33.05-3.11.19-3.73,2.1-3.58,4.81,1.74,30.91.37,61.85.6,92.77.07,9.19-1.9,18.2-4.36,26.9-.9,3.2-3.06,7.86-7.95,8.7-1.88.32-.48,2.29-1.95,3.56-8.22,7.09-17.9,10.28-28.28,11.07a113.23,113.23,0,0,1-33.24-2c-8-2.92-15.76-6.31-21.69-12.75-4.91-5.34-8.4-11.36-8.51-18.88C211,131.71,212.32,129.76,211,128.16Z"/><path class="cls-1" d="M570.76,18.93c-18.15-.88-28.14,10-31.78,27.92-3.74,18.5-4,37.32-3.13,56,.54,12,0,24.23,3.8,35.94,4.58,14.1,14.86,23.94,31.65,24.34,15.64.38,26.32-7,34.33-18.39,4.36-6.2,7.14-13.9,10.33-21.07,1.37-3.07,3.64-4.11,6.58-3.58,2.73.49,3.48,2.57,3.23,5.25-1.12,12.09-1.11,24.21-1.17,36.34,0,2.12-.18,4.4-2.85,5.17-3.24.72-5.75.76-8.68-2.14-4.39-4.34-10.35-2.2-15.34,2.2-1.77.6-3.71-.11-5.46.67-5.83-1-11.25,1.69-17,2-7.73.46-14.84-2.46-22.36-2.15-1.67.07-2.44-1.43-3.64-2.09-10-5.47-20.62-10.08-27.94-19.26C506.81,128,499.1,107.33,502,84a89.21,89.21,0,0,1,12.83-35.94c8.92-14.4,20.91-25.33,36.14-32a53,53,0,0,1,40.19-1.3c4.36,1.57,8.81,2.81,13.07,4.77,2.59,1.19,5.69.08,7.71-1.72a8.69,8.69,0,0,1,5.78-2.05c3.32-.23,5,1,4.91,4.54-.08,3.15.18,6.31.29,9.47.68,2.1-.16,4.37.67,6.46-.27,5.51-1.32,11,.31,16.53.36,2.67.73,5.34-.25,8C617.17,62.86,615.37,62,612.9,56c-2-4.79-4-9.53-6-14.3-4.17-2.79-6.35-7.44-10-10.74a117,117,0,0,1-9.05-8.34C582.8,18.3,576.82,18.44,570.76,18.93Z"/></g></g></svg>